# Blender 3.3.1
# www.blender.org
mtllib amazon_box.mtl
o package
v -0.200000 0.000000 -0.150000
v 0.200000 0.000000 -0.150000
v -0.200000 0.000000 0.150000
v 0.200000 0.000000 0.150000
v 0.200000 0.200000 -0.150000
v -0.200000 0.200000 -0.150000
v 0.200000 0.200000 0.150000
v -0.200000 0.200000 0.150000
vn -0.5774 -0.5774 -0.5774
vn 0.5774 -0.5774 -0.5774
vn -0.5774 -0.5774 0.5774
vn 0.5774 -0.5774 0.5774
vn 0.5774 0.5774 -0.5774
vn -0.5774 0.5774 -0.5774
vn 0.5774 0.5774 0.5774
vn -0.5774 0.5774 0.5774
vt 0.375000 0.000000
vt 0.500000 0.500000
vt 0.250000 1.000000
vt 0.375000 0.500000
vt 0.250000 0.500000
vt 0.750000 0.875000
vt 0.000000 0.000000
vt 0.500000 0.875000
vt 1.000000 0.000000
vt 0.000000 0.500000
vt 1.000000 0.500000
vt 0.750000 0.500000
vt 0.750000 0.000000
vt 0.000000 0.500000
vt 0.500000 0.875000
vt 0.750000 0.500000
vt 0.250000 0.500000
vt 0.000000 1.000000
vt 0.375000 0.000000
vt 0.750000 0.500000
vt 0.500000 0.500000
vt 0.375000 0.500000
vt 0.250000 0.875000
vt 0.750000 0.000000
s 1
usemtl package
f 1/1/1 2/4/2 3/7/3
f 2/4/2 4/10/4 3/7/3
f 5/13/5 6/16/6 7/19/7
f 6/16/6 8/22/8 7/19/7
f 8/23/8 6/17/6 3/8/3
f 6/17/6 1/2/1 3/8/3
f 6/18/6 5/14/5 1/3/1
f 5/14/5 2/5/2 1/3/1
f 7/20/7 8/24/8 4/11/4
f 8/24/8 3/9/3 4/11/4
f 5/15/5 7/21/7 2/6/2
f 7/21/7 4/12/4 2/6/2
